STARTFONT 2.1
FONT -MIT-57VSGN KST-Medium-R-Normal--57-20-200-200-P-45-ISO8859-1
SIZE 20 200 200
FONTBOUNDINGBOX 86 57 -9 -7
STARTPROPERTIES 17
ADD_STYLE_NAME ""
AVERAGE_WIDTH 45
CHARSET_ENCODING "1"
CHARSET_REGISTRY "ISO8859"
DEFAULT_CHAR 0
FAMILY "57VSGN KST"
FONT_ASCENT 50
FONT_DESCENT 7
FOUNDRY "MIT"
PIXEL_SIZE 57
POINT_SIZE 20
RESOLUTION_X 200
RESOLUTION_Y 200
SETWIDTH_NAME "Normal"
SLANT "R"
SPACING "P"
WEIGHT_NAME "Medium"
ENDPROPERTIES
CHARS 51
STARTCHAR char24
ENCODING 24
SWIDTH 2250 0
DWIDTH 45 0
BBX 40 57 5 -7
BITMAP
0000000000
0000000000
0000000000
0000000000
0000000000
0000000000
0000000000
0000008000
0000018000
0000038000
0000078000
00001F8000
00003F8000
0000FF8000
0001FF8000
0007FF8000
001FFFFFFF
007FFFFFFF
01FFFFFFFF
07FFFFFFFF
3C00000000
E000000000
E000000000
3C00000000
07FFFFFFFF
01FFFFFFFF
007FFFFFFF
001FFFFFFF
0007FF8000
0001FF8000
0000FF8000
00003F8000
00001F8000
0000078000
0000038000
0000018000
0000008000
0000000000
0000000000
0000000000
0000000000
0000000000
0000000000
0000000000
0000000000
0000000000
0000000000
0000000000
0000000000
0000000000
0000000000
0000000000
0000000000
0000000000
0000000000
0000000000
0000000000
ENDCHAR
STARTCHAR char25
ENCODING 25
SWIDTH 2250 0
DWIDTH 45 0
BBX 40 57 0 -7
BITMAP
0000000000
0000000000
0000000000
0000000000
0000000000
0000000000
0000000000
0001000000
0001800000
0001C00000
0001E00000
0001F80000
0001FC0000
0001FF0000
0001FF8000
0001FFE000
FFFFFFF800
FFFFFFFE00
FFFFFFFF80
FFFFFFFFE0
000000003C
0000000007
0000000007
000000003C
FFFFFFFFE0
FFFFFFFF80
FFFFFFFE00
FFFFFFF800
0001FFE000
0001FF8000
0001FF0000
0001FC0000
0001F80000
0001E00000
0001C00000
0001800000
0001000000
0000000000
0000000000
0000000000
0000000000
0000000000
0000000000
0000000000
0000000000
0000000000
0000000000
0000000000
0000000000
0000000000
0000000000
0000000000
0000000000
0000000000
0000000000
0000000000
0000000000
ENDCHAR
STARTCHAR char32
ENCODING 32
SWIDTH 2000 0
DWIDTH 40 0
BBX 1 57 0 -7
BITMAP
00
00
00
00
00
00
00
00
00
00
00
00
00
00
00
00
00
00
00
00
00
00
00
00
00
00
00
00
00
00
00
00
00
00
00
00
00
00
00
00
00
00
00
00
00
00
00
00
00
00
00
00
00
00
00
00
00
ENDCHAR
STARTCHAR char33
ENCODING 33
SWIDTH 1000 0
DWIDTH 20 0
BBX 14 57 0 -7
BITMAP
0FC0
1FE0
3FF0
7FF8
FFFC
FFFC
FFFC
FFFC
FFFC
FFFC
FFFC
FFFC
7FF8
7FF8
7FF8
7FF8
7FF8
7FF8
7FF8
3FF0
3FF0
3FF0
3FF0
3FF0
3FF0
3FF0
1FE0
1FE0
1FE0
1FE0
1FE0
1FE0
1FE0
1FE0
0FC0
0780
0000
0000
0000
0780
0FC0
1860
3870
3870
3870
3870
1860
0FC0
0780
0000
0000
0000
0000
0000
0000
0000
0000
ENDCHAR
STARTCHAR char39
ENCODING 39
SWIDTH 700 0
DWIDTH 14 0
BBX 10 57 0 -7
BITMAP
FFC0
FFC0
E1C0
E1C0
E1C0
E1C0
E1C0
E1C0
FFC0
FFC0
1E00
1E00
1E00
1E00
0C00
0C00
0C00
0C00
0000
0000
0000
0000
0000
0000
0000
0000
0000
0000
0000
0000
0000
0000
0000
0000
0000
0000
0000
0000
0000
0000
0000
0000
0000
0000
0000
0000
0000
0000
0000
0000
0000
0000
0000
0000
0000
0000
0000
ENDCHAR
STARTCHAR char42
ENCODING 42
SWIDTH 1350 0
DWIDTH 27 0
BBX 20 57 0 -7
BITMAP
000000
000000
000000
000000
000000
000000
000000
000000
000000
000000
000000
000000
000000
000000
000000
00F000
00F000
00F000
006000
E06070
F060F0
FC63F0
0E6700
036C00
01F800
01F800
036C00
0E6700
FC63F0
F060F0
E06070
006000
00F000
00F000
00F000
000000
000000
000000
000000
000000
000000
000000
000000
000000
000000
000000
000000
000000
000000
000000
000000
000000
000000
000000
000000
000000
000000
ENDCHAR
STARTCHAR char44
ENCODING 44
SWIDTH 700 0
DWIDTH 14 0
BBX 10 57 0 -7
BITMAP
0000
0000
0000
0000
0000
0000
0000
0000
0000
0000
0000
0000
0000
0000
0000
0000
0000
0000
0000
0000
0000
0000
0000
0000
0000
0000
0000
0000
0000
0000
0000
0000
0000
0000
0000
0000
0000
0000
0000
0000
FFC0
FFC0
E1C0
E1C0
E1C0
E1C0
E1C0
E1C0
FFC0
FFC0
03C0
03C0
0180
0180
0300
0600
0C00
ENDCHAR
STARTCHAR char45
ENCODING 45
SWIDTH 1250 0
DWIDTH 25 0
BBX 17 57 4 -7
BITMAP
000000
000000
000000
000000
000000
000000
000000
000000
000000
000000
000000
000000
000000
000000
000000
000000
000000
000000
000000
000000
000000
000000
FFFF80
FFFF80
FFFF80
FFFF80
000000
000000
000000
000000
000000
000000
000000
000000
000000
000000
000000
000000
000000
000000
000000
000000
000000
000000
000000
000000
000000
000000
000000
000000
000000
000000
000000
000000
000000
000000
000000
ENDCHAR
STARTCHAR char46
ENCODING 46
SWIDTH 700 0
DWIDTH 14 0
BBX 10 57 0 -7
BITMAP
0000
0000
0000
0000
0000
0000
0000
0000
0000
0000
0000
0000
0000
0000
0000
0000
0000
0000
0000
0000
0000
0000
0000
0000
0000
0000
0000
0000
0000
0000
0000
0000
0000
0000
0000
0000
0000
0000
0000
0000
1E00
3F00
6180
E1C0
E1C0
E1C0
E1C0
6180
3F00
1E00
0000
0000
0000
0000
0000
0000
0000
ENDCHAR
STARTCHAR char47
ENCODING 47
SWIDTH 1850 0
DWIDTH 37 0
BBX 29 57 0 -7
BITMAP
00000078
000000F0
000000F0
000001E0
000001E0
000003C0
000003C0
00000780
00000780
00000F00
00000F00
00001E00
00001E00
00003C00
00003C00
00007800
00007800
0000F000
0000F000
0001E000
0001E000
0003C000
0003C000
00078000
00078000
000F0000
000F0000
001E0000
001E0000
003C0000
003C0000
00780000
00780000
00F00000
00F00000
01E00000
01E00000
03C00000
03C00000
07800000
07800000
0F000000
0F000000
1E000000
1E000000
3C000000
3C000000
78000000
78000000
F0000000
00000000
00000000
00000000
00000000
00000000
00000000
00000000
ENDCHAR
STARTCHAR char48
ENCODING 48
SWIDTH 2500 0
DWIDTH 50 0
BBX 39 57 0 -7
BITMAP
00FFFFFC00
01FFFFFE00
03FFFFFF00
07C0001F80
0F80001FC0
1F00003BE0
3E000079F0
7C000070F8
F80000E0FC
F00001E0FE
F00001C1FE
F0000381DE
F00007839E
F00007079E
F0000E071E
F0001E0E1E
F0001C1E1E
F000381C1E
F00078381E
F00070781E
F000E0701E
F001E0E01E
F001C1E01E
F00381C01E
F00783801E
F00707801E
F00E07001E
F01E0E001E
F01C1E001E
F0381C001E
F07838001E
F07078001E
F0E070001E
F1E0E0001E
F1C1E0001E
F381C0001E
F78380001E
F70780001E
F60700001E
FE0E00001E
FC1E00003E
FC1C00007C
7C380000F8
3E780001F0
1FF00003E0
0FE00007C0
07E0000F80
03FFFFFF00
01FFFFFE00
00FFFFFC00
0000000000
0000000000
0000000000
0000000000
0000000000
0000000000
0000000000
ENDCHAR
STARTCHAR char49
ENCODING 49
SWIDTH 2500 0
DWIDTH 50 0
BBX 19 57 9 -7
BITMAP
000400
000400
000C00
000C00
001C00
003C00
007C00
00FC00
01FC00
03FC00
0FDC00
3F9C00
FF1C00
071C00
071C00
071C00
071C00
071C00
071C00
071C00
071C00
071C00
071C00
071C00
071C00
071C00
071C00
071C00
071C00
071C00
071C00
071C00
071C00
071C00
071C00
071C00
071C00
071C00
071C00
071C00
071C00
071C00
071C00
071C00
071C00
071C00
071C00
FFFFE0
FFFFE0
FFFFE0
000000
000000
000000
000000
000000
000000
000000
ENDCHAR
STARTCHAR char50
ENCODING 50
SWIDTH 2500 0
DWIDTH 50 0
BBX 38 57 6 -7
BITMAP
003FFFF000
007FFFF800
00FFFFFC00
01FFFFFE00
03E0001F00
07C0000F80
0F800007C0
1F000003E0
3E000001F0
7C000000F8
F80000007C
F00000003C
E00000007C
C0000000FC
80000001FC
80000003DC
000000079C
0000000F1C
0000001E1C
0000003C3C
0000007878
000000F0F0
000001E1E0
000003C3C0
0000078780
00000F0F00
00001E1E00
00003C3C00
0000787800
0000F0F000
0001E1E000
0003C3C000
0007878000
000F0F0000
001E1E0000
003C3C0000
0078780000
00F0F00000
01E1E00000
03C3C00000
0787800000
0F0F000000
1E1E000000
3C3C000000
7878000000
F0F0000000
FFFFFFFFFC
FFFFFFFFFC
FFFFFFFFFC
FFFFFFFFFC
0000000000
0000000000
0000000000
0000000000
0000000000
0000000000
0000000000
ENDCHAR
STARTCHAR char51
ENCODING 51
SWIDTH 2500 0
DWIDTH 50 0
BBX 37 57 6 -7
BITMAP
01FFFFF800
03FFFFFE00
07FFFFFF80
0F00000FC0
1E00000FE0
3C00000EF0
7800000E78
F000000E38
E000000E38
C000000E38
8000000E38
8000000E38
0000000E38
0000000E38
0000000E38
0000000E38
0000000E38
0000000E38
0000000E38
0000000E78
0000000EF0
0000000FE0
0000000FC0
0000FFFF80
0001FFFF00
0001FFFF00
0000FFFF80
0000000FC0
0000000FE0
0000000EF0
0000000E78
0000000E38
0000000E38
0000000E38
0000000E38
0000000E38
0000000E38
0000000E38
8000000E38
8000000E38
C000000E38
E000000E38
F000000E38
7800000E78
3C00000EF0
1E00000FE0
0F00000FC0
07FFFFFF80
03FFFFFE00
01FFFFF800
0000000000
0000000000
0000000000
0000000000
0000000000
0000000000
0000000000
ENDCHAR
STARTCHAR char52
ENCODING 52
SWIDTH 2500 0
DWIDTH 50 0
BBX 38 57 5 -7
BITMAP
00000FFC00
00001FFC00
00003FFC00
00003F1C00
00007F1C00
0000FF1C00
0000F71C00
0001E71C00
0003C71C00
0003C71C00
0007871C00
000F071C00
000F071C00
001E071C00
003C071C00
003C071C00
0078071C00
00F0071C00
00F0071C00
01E0071C00
03C0071C00
03C0071C00
0780071C00
0F00071C00
0F00071C00
1E00071C00
3C00071C00
3C00071C00
7800071C00
F000071C00
FFFFFFFFFC
FFFFFFFFFC
FFFFFFFFFC
FFFFFFFFFC
0000071C00
0000071C00
0000071C00
0000071C00
0000071C00
0000071C00
0000071C00
0000071C00
0000071C00
0000071C00
0000071C00
0000071C00
0000071C00
0000FFFFE0
0000FFFFE0
0000FFFFE0
0000000000
0000000000
0000000000
0000000000
0000000000
0000000000
0000000000
ENDCHAR
STARTCHAR char53
ENCODING 53
SWIDTH 2500 0
DWIDTH 50 0
BBX 36 57 0 -7
BITMAP
7FFFFFFF80
7FFFFFFF80
7FFFFFFF80
71C0000000
71C0000000
71C0000000
71C0000000
71C0000000
71C0000000
71C0000000
71C0000000
71C0000000
71C0000000
71C0000000
71C0000000
71CFFE0000
71FFFFC000
71FFFFF000
73F001FC00
77C0007E00
7F00001F00
7C00000F80
7800000780
70000003C0
60000001C0
40000001E0
00000000E0
00000000F0
0000000070
0000000070
0000000070
0000000070
0000000070
0000000070
0000000070
0000000070
0000000070
0000000070
E0000000F0
F0000000E0
F0000001E0
70000001C0
3800000380
3C00000780
1E00000F00
0F80003E00
07E000FC00
01FFFFF000
00FFFF8000
001FFE0000
0000000000
0000000000
0000000000
0000000000
0000000000
0000000000
0000000000
ENDCHAR
STARTCHAR char54
ENCODING 54
SWIDTH 2500 0
DWIDTH 50 0
BBX 37 57 6 -7
BITMAP
03FFFFFC00
07FFFFFE00
0FFFFFFF00
1F00000F80
3E000007C0
7C000003E0
F8000001F0
F0000000F8
E000000078
E000000038
E000000018
E000000008
E000000008
E000000000
E000000000
E000000000
E000000000
E000000000
E000000000
E000000000
E000000000
E000000000
E000000000
E0FFFFF800
E3FFFFFC00
EFFFFFFE00
FFFFFFFF00
FF80000780
FB800003C0
F3800001E0
E3800000F0
E380000078
E380000038
E380000038
E380000038
E380000038
E380000038
E380000038
E380000038
E380000038
E380000038
E380000038
E380000078
F3800000F0
7B800001E0
3F800003C0
1F80000780
0FFFFFFF00
03FFFFFE00
00FFFFFC00
0000000000
0000000000
0000000000
0000000000
0000000000
0000000000
0000000000
ENDCHAR
STARTCHAR char55
ENCODING 55
SWIDTH 2500 0
DWIDTH 50 0
BBX 38 57 6 -7
BITMAP
FFFFFFFFFC
FFFFFFFFFC
FFFFFFFFFC
F80000000C
F00000001C
E00000003C
C000000078
C0000000F0
80000001E0
80000003C0
0000000780
0000000F00
0000001E00
0000003C00
0000007800
000000F000
000001E000
000003C000
0000078000
00000F0000
00001E0000
00003E0000
00007E0000
0000FE0000
0001EE0000
0003CE0000
00038E0000
00038E0000
00038E0000
00038E0000
00038E0000
00038E0000
00038E0000
00038E0000
00038E0000
00038E0000
00038E0000
00038E0000
00038E0000
00038E0000
00038E0000
00038E0000
00038E0000
00038E0000
00038E0000
00038E0000
00038E0000
007FFFF000
007FFFF000
007FFFF000
0000000000
0000000000
0000000000
0000000000
0000000000
0000000000
0000000000
ENDCHAR
STARTCHAR char56
ENCODING 56
SWIDTH 2500 0
DWIDTH 50 0
BBX 37 57 6 -7
BITMAP
00FFFFFC00
03FFFFFE00
0FFFFFFF00
1F80000F80
3F800007C0
7B800003E0
F3800001F0
E3800000F8
E380000078
E380000038
E380000038
E380000038
E380000038
E380000038
E380000038
E380000038
E380000038
E380000038
E380000078
F3800000F0
7B800001E0
3F800003C0
1F80000780
0FFFFFFF00
07FFFFFE00
07FFFFFE00
0FFFFFFF00
1F80000780
3F800003C0
7B800001E0
F3800000F0
E380000078
E380000038
E380000038
E380000038
E380000038
E380000038
E380000038
E380000038
E380000038
E380000038
E380000038
E380000078
F3800000F0
7B800001E0
3F800003C0
1F80000780
0FFFFFFF00
03FFFFFE00
00FFFFFC00
0000000000
0000000000
0000000000
0000000000
0000000000
0000000000
0000000000
ENDCHAR
STARTCHAR char57
ENCODING 57
SWIDTH 2500 0
DWIDTH 50 0
BBX 37 57 6 -7
BITMAP
01FFFFF800
03FFFFFE00
07FFFFFF80
0F00000FC0
1E00000FE0
3C00000EF0
7800000E78
F000000E38
E000000E38
E000000E38
E000000E38
E000000E38
E000000E38
E000000E38
E000000E38
E000000E38
E000000E38
E000000E38
F000000E38
7800000E38
3C00000E78
1E00000EF8
0F00000FF8
07FFFFFFF8
03FFFFFFB8
01FFFFFE38
00FFFFF838
0000000038
0000000038
0000000038
0000000038
0000000038
0000000038
0000000038
0000000038
0000000038
0000000038
8000000038
8000000038
C000000038
E000000038
F000000038
F800000078
7C000000F8
3E000001F0
1F000003E0
0F800007C0
07FFFFFF80
03FFFFFF00
01FFFFFE00
0000000000
0000000000
0000000000
0000000000
0000000000
0000000000
0000000000
ENDCHAR
STARTCHAR char58
ENCODING 58
SWIDTH 700 0
DWIDTH 14 0
BBX 10 57 0 -7
BITMAP
0000
0000
0000
0000
0000
0000
0000
0000
0000
0000
0000
0000
0000
0000
0000
0000
1E00
3F00
6180
E1C0
E1C0
E1C0
E1C0
6180
3F00
1E00
0000
0000
0000
0000
0000
0000
0000
0000
0000
1E00
3F00
6180
E1C0
E1C0
E1C0
E1C0
6180
3F00
1E00
0000
0000
0000
0000
0000
0000
0000
0000
0000
0000
0000
0000
ENDCHAR
STARTCHAR char59
ENCODING 59
SWIDTH 700 0
DWIDTH 14 0
BBX 10 57 0 -7
BITMAP
0000
0000
0000
0000
0000
0000
0000
0000
0000
0000
0000
0000
0000
0000
0000
0000
0000
0000
0000
0000
0000
1E00
3F00
6180
E1C0
E1C0
E1C0
E1C0
6180
3F00
1E00
0000
0000
0000
0000
0000
0000
0000
0000
0000
FFC0
FFC0
E1C0
E1C0
E1C0
E1C0
E1C0
E1C0
FFC0
FFC0
03C0
03C0
0180
0180
0300
0600
0C00
ENDCHAR
STARTCHAR char61
ENCODING 61
SWIDTH 1250 0
DWIDTH 25 0
BBX 25 57 0 -7
BITMAP
00000000
00000000
00000000
00000000
00000000
00000000
00000000
00000000
00000000
00000000
00000000
00000000
00000000
00000000
00000000
00000000
FFFFFF80
FFFFFF80
FFFFFF80
FFFFFF80
00000000
00000000
00000000
00000000
FFFFFF80
FFFFFF80
FFFFFF80
FFFFFF80
00000000
00000000
00000000
00000000
00000000
00000000
00000000
00000000
00000000
00000000
00000000
00000000
00000000
00000000
00000000
00000000
00000000
00000000
00000000
00000000
00000000
00000000
00000000
00000000
00000000
00000000
00000000
00000000
00000000
ENDCHAR
STARTCHAR char65
ENCODING 65
SWIDTH 3000 0
DWIDTH 60 0
BBX 50 57 0 -7
BITMAP
00000FFC000000
00000FFC000000
00001FFE000000
000018E6000000
000018E6000000
000038E7000000
000030E7000000
000031C7000000
000071C7800000
000061C3800000
00006183800000
0000E383C00000
0000C381C00000
0000C301C00000
0001C701E00000
00018700E00000
00018600E00000
00038E00F00000
00030E00700000
00030C00700000
00071C00780000
00061C00380000
00061800380000
000E38003C0000
000C38001C0000
000C30001C0000
001C70001E0000
001870000E0000
001860000E0000
0038FFFFFF0000
0030FFFFFF0000
0030FFFFFF0000
0071FFFFFF8000
00618000038000
00618000038000
00E3800003C000
00C3000001C000
00C3000001C000
01C7000001E000
0186000000E000
0186000000E000
038E000000F000
030C0000007000
030C0000007000
071C0000007800
06180000003800
06180000003800
FFFFC00007FFC0
FFFFC00007FFC0
FFFFC00007FFC0
00000000000000
00000000000000
00000000000000
00000000000000
00000000000000
00000000000000
00000000000000
ENDCHAR
STARTCHAR char66
ENCODING 66
SWIDTH 2500 0
DWIDTH 50 0
BBX 42 57 0 -7
BITMAP
FFFFFFFF0000
FFFFFFFFC000
FFFFFFFFF000
071C0003F800
071C0000FC00
071C00003E00
071C00001F00
071C00000F00
071C00000780
071C00000780
071C000003C0
071C000003C0
071C000003C0
071C000003C0
071C000003C0
071C000003C0
071C00000780
071C00000780
071C00000F00
071C00001F00
071C00003E00
071C0000FC00
071C0003F800
071FFFFFE000
071FFFFFC000
071FFFFFC000
071FFFFFE000
071C0003F800
071C0000FC00
071C00003E00
071C00001F00
071C00000F00
071C00000780
071C00000780
071C000003C0
071C000003C0
071C000003C0
071C000003C0
071C000003C0
071C000003C0
071C00000780
071C00000780
071C00000F00
071C00001F00
071C00003E00
071C0000FC00
071C0003F800
FFFFFFFFF000
FFFFFFFFC000
FFFFFFFF0000
000000000000
000000000000
000000000000
000000000000
000000000000
000000000000
000000000000
ENDCHAR
STARTCHAR char67
ENCODING 67
SWIDTH 2350 0
DWIDTH 47 0
BBX 38 57 0 -7
BITMAP
00FFFFFF00
01FFFFFF80
03FFFFFFC0
07E00003E0
0FC00001F0
1F800000F8
3F8000007C
7F8000003C
FB8000001C
F38000000C
E38000000C
E380000004
E380000004
E380000000
E380000000
E380000000
E380000000
E380000000
E380000000
E380000000
E380000000
E380000000
E380000000
E380000000
E380000000
E380000000
E380000000
E380000000
E380000000
E380000000
E380000000
E380000000
E380000000
E380000000
E380000000
E380000000
E380000000
E380000004
E380000004
E38000000C
F38000000C
FB8000001C
7F8000003C
3F8000007C
1F800000F8
0FC00001F0
07E00003E0
03FFFFFFC0
01FFFFFF80
00FFFFFF00
0000000000
0000000000
0000000000
0000000000
0000000000
0000000000
0000000000
ENDCHAR
STARTCHAR char68
ENCODING 68
SWIDTH 2500 0
DWIDTH 50 0
BBX 42 57 0 -7
BITMAP
FFFFFFFF0000
FFFFFFFFC000
FFFFFFFFF000
071C0003F800
071C0000FC00
071C00003E00
071C00001F00
071C00000F00
071C00000780
071C00000780
071C000003C0
071C000003C0
071C000003C0
071C000003C0
071C000003C0
071C000003C0
071C000003C0
071C000003C0
071C000003C0
071C000003C0
071C000003C0
071C000003C0
071C000003C0
071C000003C0
071C000003C0
071C000003C0
071C000003C0
071C000003C0
071C000003C0
071C000003C0
071C000003C0
071C000003C0
071C000003C0
071C000003C0
071C000003C0
071C000003C0
071C000003C0
071C000003C0
071C000003C0
071C000003C0
071C00000780
071C00000780
071C00000F00
071C00001F00
071C00003E00
071C0000FC00
071C0003F800
FFFFFFFFF000
FFFFFFFFC000
FFFFFFFF0000
000000000000
000000000000
000000000000
000000000000
000000000000
000000000000
000000000000
ENDCHAR
STARTCHAR char69
ENCODING 69
SWIDTH 2500 0
DWIDTH 50 0
BBX 41 57 0 -7
BITMAP
FFFFFFFFFF80
FFFFFFFFFF80
FFFFFFFFFF80
071C00000F80
071C00000780
071C00000380
071C00000180
071C00000180
071C00000080
071C00000080
071C00000000
071C00000000
071C00000000
071C00000000
071C00000000
071C00000000
071C00000000
071C00000000
071C00000000
071C00800000
071C00800000
071C01800000
071C03800000
071FFF800000
071FFF800000
071FFF800000
071FFF800000
071C03800000
071C01800000
071C00800000
071C00800000
071C00000000
071C00000000
071C00000000
071C00000000
071C00000000
071C00000000
071C00000000
071C00000000
071C00000000
071C00000080
071C00000080
071C00000180
071C00000180
071C00000380
071C00000780
071C00000F80
FFFFFFFFFF80
FFFFFFFFFF80
FFFFFFFFFF80
000000000000
000000000000
000000000000
000000000000
000000000000
000000000000
000000000000
ENDCHAR
STARTCHAR char70
ENCODING 70
SWIDTH 2500 0
DWIDTH 50 0
BBX 41 57 0 -7
BITMAP
FFFFFFFFFF80
FFFFFFFFFF80
FFFFFFFFFF80
071C00001F80
071C00000780
071C00000380
071C00000180
071C00000180
071C00000080
071C00000080
071C00000000
071C00000000
071C00000000
071C00000000
071C00000000
071C00000000
071C00000000
071C00000000
071C00000000
071C00800000
071C00800000
071C01800000
071C03800000
071FFF800000
071FFF800000
071FFF800000
071FFF800000
071C03800000
071C01800000
071C00800000
071C00800000
071C00000000
071C00000000
071C00000000
071C00000000
071C00000000
071C00000000
071C00000000
071C00000000
071C00000000
071C00000000
071C00000000
071C00000000
071C00000000
071C00000000
071C00000000
071C00000000
FFFFE0000000
FFFFE0000000
FFFFE0000000
000000000000
000000000000
000000000000
000000000000
000000000000
000000000000
000000000000
ENDCHAR
STARTCHAR char71
ENCODING 71
SWIDTH 2350 0
DWIDTH 47 0
BBX 38 57 0 -7
BITMAP
00FFFFFF00
01FFFFFF80
03FFFFFFC0
07E00003E0
0FC00001F0
1F800000F8
3F8000007C
7F8000003C
FB8000001C
F38000000C
E38000000C
E380000004
E380000004
E380000000
E380000000
E380000000
E380000000
E380000000
E380000000
E380000000
E380000000
E380000000
E380000000
E380000000
E380000000
E380000000
E380000000
E380000000
E38003FFFC
E38003FFFC
E38003FFFC
E38003FFFC
E38000003C
E38000003C
E38000003C
E38000003C
E38000003C
E38000003C
E38000003C
E38000003C
F38000003C
FB8000003C
7F8000003C
3F8000007C
1F800000F8
0FC00001F0
07E00003E0
03FFFFFFC0
01FFFFFF80
00FFFFFF00
0000000000
0000000000
0000000000
0000000000
0000000000
0000000000
0000000000
ENDCHAR
STARTCHAR char72
ENCODING 72
SWIDTH 2800 0
DWIDTH 56 0
BBX 47 57 0 -7
BITMAP
FFFFE0007FFE
FFFFE0007FFE
FFFFE0007FFE
071C000003C0
071C000003C0
071C000003C0
071C000003C0
071C000003C0
071C000003C0
071C000003C0
071C000003C0
071C000003C0
071C000003C0
071C000003C0
071C000003C0
071C000003C0
071C000003C0
071C000003C0
071C000003C0
071C000003C0
071C000003C0
071C000003C0
071C000003C0
071FFFFFFFC0
071FFFFFFFC0
071FFFFFFFC0
071FFFFFFFC0
071C000003C0
071C000003C0
071C000003C0
071C000003C0
071C000003C0
071C000003C0
071C000003C0
071C000003C0
071C000003C0
071C000003C0
071C000003C0
071C000003C0
071C000003C0
071C000003C0
071C000003C0
071C000003C0
071C000003C0
071C000003C0
071C000003C0
071C000003C0
FFFFE0007FFE
FFFFE0007FFE
FFFFE0007FFE
000000000000
000000000000
000000000000
000000000000
000000000000
000000000000
000000000000
ENDCHAR
STARTCHAR char73
ENCODING 73
SWIDTH 1350 0
DWIDTH 27 0
BBX 19 57 0 -7
BITMAP
FFFFE0
FFFFE0
FFFFE0
071C00
071C00
071C00
071C00
071C00
071C00
071C00
071C00
071C00
071C00
071C00
071C00
071C00
071C00
071C00
071C00
071C00
071C00
071C00
071C00
071C00
071C00
071C00
071C00
071C00
071C00
071C00
071C00
071C00
071C00
071C00
071C00
071C00
071C00
071C00
071C00
071C00
071C00
071C00
071C00
071C00
071C00
071C00
071C00
FFFFE0
FFFFE0
FFFFE0
000000
000000
000000
000000
000000
000000
000000
ENDCHAR
STARTCHAR char74
ENCODING 74
SWIDTH 2500 0
DWIDTH 50 0
BBX 41 57 0 -7
BITMAP
000003FFFF80
000003FFFF80
000003FFFF80
0000001C7000
0000001C7000
0000001C7000
0000001C7000
0000001C7000
0000001C7000
0000001C7000
0000001C7000
0000001C7000
0000001C7000
0000001C7000
0000001C7000
0000001C7000
0000001C7000
0000001C7000
0000001C7000
0000001C7000
0000001C7000
0000001C7000
0000001C7000
0000001C7000
0000001C7000
0000001C7000
0000001C7000
0000001C7000
0000001C7000
0000001C7000
0000001C7000
0000001C7000
0000001C7000
0000001C7000
0000001C7000
FFFC001C7000
FFFC001C7000
FFFC001C7000
0780001C7000
0780001CF000
0780001DE000
03C0001FC000
01E0001FC000
01E0001F8000
00F0001F0000
0070001F0000
0078003E0000
003FFFFC0000
003FFFFC0000
001FFFF80000
000000000000
000000000000
000000000000
000000000000
000000000000
000000000000
000000000000
ENDCHAR
STARTCHAR char75
ENCODING 75
SWIDTH 2850 0
DWIDTH 57 0
BBX 48 57 0 -7
BITMAP
FFFFE0007FFF
FFFFE0007FFF
FFFFE0007FFF
071C000003C0
071C00000780
071C00000F00
071C00001E00
071C00003C00
071C00007800
071C0000F000
071C0001E000
071C0003C000
071C00078000
071C000F0000
071C001E0000
071C003C0000
071C00780000
071C00F00000
071C01E00000
071C03C00000
071C07800000
071C0F000000
071C1E000000
071C3C000000
071C78000000
071CF8000000
071DFC000000
071FDE000000
071F8F000000
071F07800000
071E03C00000
071C01E00000
071C00F00000
071C00780000
071C003C0000
071C001E0000
071C000F0000
071C00078000
071C0003C000
071C0001E000
071C0000F000
071C00007800
071C00003C00
071C00001E00
071C00000F00
071C00000780
071C000003C0
FFFFE0007FFF
FFFFE0007FFF
FFFFE0007FFF
000000000000
000000000000
000000000000
000000000000
000000000000
000000000000
000000000000
ENDCHAR
STARTCHAR char76
ENCODING 76
SWIDTH 2500 0
DWIDTH 50 0
BBX 41 57 0 -7
BITMAP
FFFFE0000000
FFFFE0000000
FFFFE0000000
071C00000000
071C00000000
071C00000000
071C00000000
071C00000000
071C00000000
071C00000000
071C00000000
071C00000000
071C00000000
071C00000000
071C00000000
071C00000000
071C00000000
071C00000000
071C00000000
071C00000000
071C00000000
071C00000000
071C00000000
071C00000000
071C00000000
071C00000000
071C00000000
071C00000000
071C00000000
071C00000000
071C00000000
071C00000000
071C00000000
071C00000000
071C00000000
071C00000000
071C00000000
071C00000000
071C00000000
071C00000000
071C00000080
071C00000080
071C00000180
071C00000180
071C00000380
071C00000780
071C00000F80
FFFFFFFFFF80
FFFFFFFFFF80
FFFFFFFFFF80
000000000000
000000000000
000000000000
000000000000
000000000000
000000000000
000000000000
ENDCHAR
STARTCHAR char77
ENCODING 77
SWIDTH 3850 0
DWIDTH 77 0
BBX 68 57 0 -7
BITMAP
FFFFE000000007FFF0
FFFFE000000007FFF0
FFFFE000000007FFF0
071E00000000003E00
071F00000000007E00
071F00000000007E00
071F8000000000FE00
071F8000000000FE00
071DC000000001DE00
071DC000000001DE00
071CE0000000039E00
071CE0000000039E00
071C70000000071E00
071C70000000071E00
071C380000000E1E00
071C380000000E1E00
071C1C0000001C1E00
071C1C0000001C1E00
071C0E000000381E00
071C0E000000381E00
071C07000000701E00
071C07000000701E00
071C03800000E01E00
071C03800000E01E00
071C01C00001C01E00
071C01C00001C01E00
071C00E00003801E00
071C00E00003801E00
071C00700007001E00
071C00700007001E00
071C0038000E001E00
071C0038000E001E00
071C001C001C001E00
071C001C001C001E00
071C000E0038001E00
071C000E0038001E00
071C00070070001E00
071C00070070001E00
071C000380E0001E00
071C000380E0001E00
071C0001C1C0001E00
071C0001C1C0001E00
071C0000E380001E00
071C0000E380001E00
071C00007F00001E00
071C00007F00001E00
071C00003E00001E00
FFFFE0003E0003FFF0
FFFFE000000003FFF0
FFFFE000000003FFF0
000000000000000000
000000000000000000
000000000000000000
000000000000000000
000000000000000000
000000000000000000
000000000000000000
ENDCHAR
STARTCHAR char78
ENCODING 78
SWIDTH 3250 0
DWIDTH 65 0
BBX 56 57 0 -7
BITMAP
FFFFE000007FFF
FFFFE000007FFF
FFFFE000007FFF
071E00000001E0
071F00000001E0
071F80000001E0
071FC0000001E0
071FE0000001E0
071DF0000001E0
071CF8000001E0
071C78000001E0
071C3C000001E0
071C3E000001E0
071C1E000001E0
071C0F000001E0
071C0F800001E0
071C07C00001E0
071C03E00001E0
071C01E00001E0
071C00F00001E0
071C00F80001E0
071C007C0001E0
071C003C0001E0
071C001E0001E0
071C001F0001E0
071C000F8001E0
071C00078001E0
071C0003C001E0
071C0003E001E0
071C0001F001E0
071C0000F001E0
071C00007801E0
071C00007C01E0
071C00003E01E0
071C00001E01E0
071C00000F01E0
071C00000F81E0
071C000007C1E0
071C000003C1E0
071C000001E1E0
071C000001F1E0
071C000000F9E0
071C00000079E0
071C0000003DE0
071C0000003FE0
071C0000001FE0
071C0000000FE0
FFFFE0000007E0
FFFFE0000003E0
FFFFE0000003E0
00000000000000
00000000000000
00000000000000
00000000000000
00000000000000
00000000000000
00000000000000
ENDCHAR
STARTCHAR char79
ENCODING 79
SWIDTH 2500 0
DWIDTH 50 0
BBX 41 57 0 -7
BITMAP
00FFFFFF0000
01FFFFFF8000
03FFFFFFC000
07E00003E000
0FC00001F000
1F800000F800
3F8000007C00
7F8000003E00
FB8000001F00
F38000000F80
E38000000780
E38000000780
E38000000780
E38000000780
E38000000780
E38000000780
E38000000780
E38000000780
E38000000780
E38000000780
E38000000780
E38000000780
E38000000780
E38000000780
E38000000780
E38000000780
E38000000780
E38000000780
E38000000780
E38000000780
E38000000780
E38000000780
E38000000780
E38000000780
E38000000780
E38000000780
E38000000780
E38000000780
E38000000780
E38000000780
F38000000F80
FB8000001F00
7F8000003E00
3F8000007C00
1F800000F800
0FC00001F000
07E00003E000
03FFFFFFC000
01FFFFFF8000
00FFFFFF0000
000000000000
000000000000
000000000000
000000000000
000000000000
000000000000
000000000000
ENDCHAR
STARTCHAR char80
ENCODING 80
SWIDTH 2500 0
DWIDTH 50 0
BBX 42 57 0 -7
BITMAP
FFFFFFFF0000
FFFFFFFFC000
FFFFFFFFF000
071C0003F800
071C0000FC00
071C00003E00
071C00001F00
071C00000F00
071C00000780
071C00000780
071C000003C0
071C000003C0
071C000003C0
071C000003C0
071C000003C0
071C000003C0
071C00000780
071C00000780
071C00000F00
071C00001F00
071C00003E00
071C0000FC00
071C0003F800
071FFFFFE000
071FFFFFC000
071FFFFF0000
071FFFFC0000
071C00000000
071C00000000
071C00000000
071C00000000
071C00000000
071C00000000
071C00000000
071C00000000
071C00000000
071C00000000
071C00000000
071C00000000
071C00000000
071C00000000
071C00000000
071C00000000
071C00000000
071C00000000
071C00000000
071C00000000
FFFFF0000000
FFFFF0000000
FFFFF0000000
000000000000
000000000000
000000000000
000000000000
000000000000
000000000000
000000000000
ENDCHAR
STARTCHAR char81
ENCODING 81
SWIDTH 2500 0
DWIDTH 50 0
BBX 43 57 0 -7
BITMAP
00FFFFFF0000
01FFFFFF8000
03FFFFFFC000
07E00003E000
0FC00001F000
1F800000F800
3F8000007C00
7F8000003E00
FB8000001F00
F38000000F80
E38000000780
E38000000780
E38000000780
E38000000780
E38000000780
E38000000780
E38000000780
E38000000780
E38000000780
E38000000780
E38000000780
E38000000780
E38000000780
E38000000780
E38000000780
E38000000780
E38000000780
E38000000780
E38000000780
E38000000780
E38000000780
E38000000780
E38000000780
E38000000780
E38000000780
E38000000780
E38000000780
E38000780780
E380003C0780
E380001E0780
F380000F0F80
FB8000079F00
7F800003FE00
3F800001FC00
1F800000F800
0FC00001F800
07E00003FC00
03FFFFFFDE00
01FFFFFF8F00
00FFFFFF0780
0000000003C0
0000000001E0
000000000000
000000000000
000000000000
000000000000
000000000000
ENDCHAR
STARTCHAR char82
ENCODING 82
SWIDTH 2500 0
DWIDTH 50 0
BBX 44 57 0 -7
BITMAP
FFFFFFFF0000
FFFFFFFFC000
FFFFFFFFF000
071C0003F800
071C0000FC00
071C00003E00
071C00001F00
071C00000F00
071C00000780
071C00000780
071C000003C0
071C000003C0
071C000003C0
071C000003C0
071C000003C0
071C000003C0
071C00000780
071C00000780
071C00000F00
071C00001F00
071C00003E00
071C0000FC00
071C0003F800
071FFFFFE000
071FFFFFC000
071FFFFF8000
071FFFFFE000
071C0003F000
071C0001F800
071C00007C00
071C00003C00
071C00001E00
071C00001E00
071C00000F00
071C00000F00
071C00000F00
071C00000F00
071C00000F00
071C00000F00
071C00000F00
071C00000F00
071C00000F00
071C00000F00
071C00000F00
071C00000F00
071C00000F00
071C00000F00
FFFFF0000F80
FFFFF0000FC0
FFFFF0000FF0
000000000000
000000000000
000000000000
000000000000
000000000000
000000000000
000000000000
ENDCHAR
STARTCHAR char83
ENCODING 83
SWIDTH 2300 0
DWIDTH 46 0
BBX 37 57 0 -7
BITMAP
00FFFFFC00
03FFFFFE00
0FFFFFFF00
1F80000F80
3F800007C0
7B800003E0
F3800001F0
E3800000F8
E380000078
E380000038
E380000018
E380000018
E380000008
E380000008
E380000000
E380000000
E380000000
E380000000
E380000000
F380000000
7B80000000
3F80000000
1F80000000
0FFFFFF800
07FFFFFC00
01FFFFFF00
00FFFFFF80
0000000FC0
0000000FE0
0000000EF0
0000000E78
0000000E38
0000000E38
0000000E38
0000000E38
0000000E38
8000000E38
8000000E38
C000000E38
C000000E38
E000000E38
F000000E38
F800000E38
7C00000E78
3E00000EF0
1F00000FE0
0F80000FC0
07FFFFFF80
03FFFFFE00
01FFFFF800
0000000000
0000000000
0000000000
0000000000
0000000000
0000000000
0000000000
ENDCHAR
STARTCHAR char84
ENCODING 84
SWIDTH 2700 0
DWIDTH 54 0
BBX 45 57 0 -7
BITMAP
FFFFFFFFFFF8
FFFFFFFFFFF8
FFFFFFFFFFF8
FC0038E001F8
F00038E00078
E00038E00038
C00038E00018
C00038E00018
800038E00008
800038E00008
000038E00000
000038E00000
000038E00000
000038E00000
000038E00000
000038E00000
000038E00000
000038E00000
000038E00000
000038E00000
000038E00000
000038E00000
000038E00000
000038E00000
000038E00000
000038E00000
000038E00000
000038E00000
000038E00000
000038E00000
000038E00000
000038E00000
000038E00000
000038E00000
000038E00000
000038E00000
000038E00000
000038E00000
000038E00000
000038E00000
000038E00000
000038E00000
000038E00000
000038E00000
000038E00000
000038E00000
000038E00000
0007FFFF0000
0007FFFF0000
0007FFFF0000
000000000000
000000000000
000000000000
000000000000
000000000000
000000000000
000000000000
ENDCHAR
STARTCHAR char85
ENCODING 85
SWIDTH 2650 0
DWIDTH 53 0
BBX 47 57 0 -7
BITMAP
FFFFE0007FFE
FFFFE0007FFE
FFFFE0007FFE
071C000003C0
071C000003C0
071C000003C0
071C000003C0
071C000003C0
071C000003C0
071C000003C0
071C000003C0
071C000003C0
071C000003C0
071C000003C0
071C000003C0
071C000003C0
071C000003C0
071C000003C0
071C000003C0
071C000003C0
071C000003C0
071C000003C0
071C000003C0
071C000003C0
071C000003C0
071C000003C0
071C000003C0
071C000003C0
071C000003C0
071C000003C0
071C000003C0
071C000003C0
071C000003C0
071C000003C0
071C000003C0
071C000003C0
071C000003C0
071C000003C0
071C000003C0
071C000003C0
079C000003C0
07DC000007C0
03FC00000F80
01FC00001F00
00FC00003E00
007E00007C00
003F0000F800
001FFFFFF000
000FFFFFE000
0007FFFFC000
000000000000
000000000000
000000000000
000000000000
000000000000
000000000000
000000000000
ENDCHAR
STARTCHAR char86
ENCODING 86
SWIDTH 2950 0
DWIDTH 59 0
BBX 50 57 0 -7
BITMAP
FFFFF80007FFC0
FFFFF80007FFC0
FFFFF80007FFC0
078F0000003800
03870000003800
03870000003800
03C78000007800
01C38000007000
01C38000007000
01E3C00000F000
00E1C00000E000
00E1C00000E000
00F1E00001E000
0070E00001C000
0070E00001C000
0078F00003C000
00387000038000
00387000038000
003C7800078000
001C3800070000
001C3800070000
001E3C000F0000
000E1C000E0000
000E1C000E0000
000F1E001E0000
00070E001C0000
00070E001C0000
00078F003C0000
00038700380000
00038700380000
0003C780780000
0001C380700000
0001C380700000
0001E3C0F00000
0000E1C0E00000
0000E1C0E00000
0000F1E1E00000
000070E1C00000
000070E1C00000
000078F3C00000
00003873800000
00003873800000
00003C7F800000
00001C3F000000
00001C3F000000
00001E3F000000
00000E1E000000
0001FFFFF00000
0001FFFFF00000
0001FFFFF00000
00000000000000
00000000000000
00000000000000
00000000000000
00000000000000
00000000000000
00000000000000
ENDCHAR
STARTCHAR char87
ENCODING 87
SWIDTH 4750 0
DWIDTH 95 0
BBX 86 57 0 -7
BITMAP
FFFFF8000000000000FFFC
FFFFF800001F800000FFFC
FFFFF800001FC00000FFFC
078F0000003FC000000780
03870000003FC000000700
03870000003FE000000700
03C780000079E000000F00
01C380000071E000000E00
01C380000071F000000E00
01E3C00000F0F000001E00
00E1C00000E0F000001C00
00E1C00000E0F800001C00
00F1E00001E07800003C00
0070E00001C07800003800
0070E00001C07C00003800
0078F00003C03C00007800
0038700003803C00007000
0038700003803E00007000
003C780007801E0000F000
001C380007001E0000E000
001C380007001F0000E000
001E3C000F000F0001E000
000E1C000E000F0001C000
000E1C000E000F8001C000
000F1E001E00078003C000
00070E001C000780038000
00070E001C0007C0038000
00078F003C0003C0078000
00038700380003C0070000
00038700380003E0070000
0003C780780001E00F0000
0001C380700001E00E0000
0001C380700001F00E0000
0001E3C0F00000F01E0000
0000E1C0E00000F01C0000
0000E1C0E00000F81C0000
0000F1E1E00000783C0000
000070E1C0000078380000
000070E1C000007C380000
000078F3C000003C780000
000038738000003C700000
000038738000003E700000
00003C7F8000001E700000
00001C3F0000001FE00000
00001C3F0000001FE00000
00001E3F0000000FE00000
00000E1E0000000FC00000
0001FFFFF00001FFFE0000
0001FFFFF00001FFFE0000
0001FFFFF00001FFFE0000
0000000000000000000000
0000000000000000000000
0000000000000000000000
0000000000000000000000
0000000000000000000000
0000000000000000000000
0000000000000000000000
ENDCHAR
STARTCHAR char88
ENCODING 88
SWIDTH 3050 0
DWIDTH 61 0
BBX 52 57 0 -7
BITMAP
7FFF0000FFFFF0
7FFF0000FFFFF0
7FFF0000FFFFF0
03C00000071E00
01E00000071C00
00F000000F1C00
007800001E3800
007800003C3800
003C0000387800
001E000078F000
000F0000F1E000
00078001E1C000
0007C001C3C000
0003C003C78000
0001E0078F0000
0000F00F0E0000
0000780E1E0000
00003C1E3C0000
00003E3C780000
00001E78700000
00000F70F00000
000007F1E00000
000003E3C00000
000003C3800000
00000787800000
0000070F000000
00000E1E000000
00001E3C000000
00003C7E000000
0000387F000000
000078FF800000
0000F1E7800000
0001E3C3C00000
0001C381E00000
0003C780F00000
00078F00780000
000F1E007C0000
000E1C003C0000
001E3C001E0000
003C78000F0000
0078F000078000
0070E00003C000
00F1E00003E000
01E3C00001E000
03C7800000F000
038F0000007800
078E0000003C00
FFFFF00007FFE0
FFFFF00007FFE0
FFFFF00007FFE0
00000000000000
00000000000000
00000000000000
00000000000000
00000000000000
00000000000000
00000000000000
ENDCHAR
STARTCHAR char89
ENCODING 89
SWIDTH 2550 0
DWIDTH 51 0
BBX 42 57 0 -7
BITMAP
FFFFE007FFC0
FFFFE007FFC0
FFFFE007FFC0
071C00003800
078E00003800
038F00007800
01C70000F000
01E38000F000
00E3C001E000
0071E003C000
0078E003C000
0038F0078000
001C780F0000
001E380F0000
000E1C1E0000
00071E3C0000
00078E3C0000
000387780000
0001C7F00000
0001E3F00000
0000E3E00000
000077C00000
00007FC00000
00003F800000
00001F000000
00001F000000
00000F000000
00000F000000
00000F000000
00000F000000
00000F000000
00000F000000
00000F000000
00000F000000
00000F000000
00000F000000
00000F000000
00000F000000
00000F000000
00000F000000
00000F000000
00000F000000
00000F000000
00000F000000
00000F000000
00000F000000
00000F000000
0001FFF80000
0001FFF80000
0001FFF80000
000000000000
000000000000
000000000000
000000000000
000000000000
000000000000
000000000000
ENDCHAR
STARTCHAR char90
ENCODING 90
SWIDTH 2800 0
DWIDTH 56 0
BBX 47 57 0 -7
BITMAP
FFFFFFFFFFFE
FFFFFFFFFFFE
FFFFFFFFFFFE
F800000000F6
F000000001E6
E000000003C6
C00000000786
C00000000F0E
800000001E1E
800000003C3C
000000007878
00000000F0F0
00000001E1E0
00000003C3C0
000000078780
0000000F0F00
0000001E1E00
0000003C3C00
000000787800
000000F0F000
000001E1E000
000003C3C000
000007878000
0003FF0FFC00
0007FE1FF800
000FFC3FF000
001FF87FE000
0000F0F00000
0001E1E00000
0003C3C00000
000787800000
000F0F000000
001E1E000000
003C3C000000
007878000000
00F0F0000000
01E1E0000000
03C3C0000000
078780000000
0F0F00000000
1E1E00000002
3C3C00000002
787800000006
F0F000000006
E1E00000000E
C3C00000001E
C7800000003E
FFFFFFFFFFFE
FFFFFFFFFFFE
FFFFFFFFFFFE
000000000000
000000000000
000000000000
000000000000
000000000000
000000000000
000000000000
ENDCHAR
STARTCHAR char108
ENCODING 108
SWIDTH 2300 0
DWIDTH 46 0
BBX 41 57 5 -7
BITMAP
C18306000000
C18306000000
60C183000000
60C183000000
3060C1800000
3870E1C00000
1C3870E00000
0E1C38700000
070E1C380000
03870E1C0000
01C3870E0000
00E1C3870000
0070E1C38000
003C78F1E000
000F1E3C7800
0003870E1C00
0003FFFFFF80
0003FFFFFF80
0003FFFFFF80
0003FFFFFF80
000000000000
000000000000
000000000000
000000000000
0003FFFFFF80
0003FFFFFF80
0003FFFFFF80
0003FFFFFF80
0003870E1C00
000F1E3C7800
003C78F1E000
0070E1C38000
00E1C3870000
01C3870E0000
03870E1C0000
070E1C380000
0E1C38700000
1C3870E00000
3870E1C00000
3060C1800000
60C183000000
60C183000000
C18306000000
C18306000000
000000000000
000000000000
000000000000
000000000000
000000000000
000000000000
000000000000
000000000000
000000000000
000000000000
000000000000
000000000000
000000000000
ENDCHAR
STARTCHAR char114
ENCODING 114
SWIDTH 2350 0
DWIDTH 47 0
BBX 41 57 0 -7
BITMAP
00003060C180
00003060C180
000060C18300
000060C18300
0000C1830600
0001C3870E00
0003870E1C00
00070E1C3800
000E1C387000
001C3870E000
003870E1C000
0070E1C38000
00E1C3870000
03C78F1E0000
0F1E3C780000
1C3870E00000
FFFFFFE00000
FFFFFFE00000
FFFFFFE00000
FFFFFFE00000
000000000000
000000000000
000000000000
000000000000
FFFFFFE00000
FFFFFFE00000
FFFFFFE00000
FFFFFFE00000
1C3870E00000
0F1E3C780000
03878F1E0000
00E1C3870000
0070E1C38000
003870E1C000
001C3870E000
000E1C387000
00070E1C3800
0003870E1C00
0001C3870E00
0000C1830600
000060C18300
000060C18300
00003060C180
00003060C180
000000000000
000000000000
000000000000
000000000000
000000000000
000000000000
000000000000
000000000000
000000000000
000000000000
000000000000
000000000000
000000000000
ENDCHAR
ENDFONT
